<svg id="Layer_1" data-name="Layer 1" xmlns="http://www.w3.org/2000/svg" viewBox="0 0 283.46 113.39"><defs><style>.cls-1{fill:#3dae2b;}</style></defs><title>TTM</title><path class="cls-1" d="M106,32.46H99.35s4.15,3.38.83,10.35L86,68.09H73.49l14-26.74A5.55,5.55,0,0,0,83,33l-6.49-.6,5.25-8.39h28.92Z"/><path class="cls-1" d="M72.61,32.46H66s4.06,3.3,1,10.11L52.62,68.09H40.11l14-26.74A5.55,5.55,0,0,0,49.66,33l-8.43.64,5.25-9.63H77.33Z"/><path class="cls-1" d="M128,51l-8.67,17.05H106.85l9.49-19c4.12-7.15,1.79-16.15-6.44-16.7h0l5.25-8.39C129,24.05,135.1,39.13,128,51Z"/><path d="M151.51,47.89H149.6c-.34,0-.5-.16-.5-.48V36a.22.22,0,0,0-.25-.25h-2.59a.42.42,0,0,1-.48-.48V33.76a.42.42,0,0,1,.48-.48h8.58a.42.42,0,0,1,.48.48V35.3a.42.42,0,0,1-.48.48h-2.59c-.18,0-.27.08-.27.25V47.41A.42.42,0,0,1,151.51,47.89Z"/><path d="M158.77,47.89h-1.93a.42.42,0,0,1-.47-.48V36.78a.42.42,0,0,1,.47-.48h1.93a.42.42,0,0,1,.48.48v.77h.09a1.75,1.75,0,0,1,.89-.93,3,3,0,0,1,1.34-.32h.82q.45,0,.45.48v1.57a.5.5,0,0,1-.1.37.41.41,0,0,1-.35.08h-1.57c-1,0-1.57.59-1.57,1.77v6.84A.42.42,0,0,1,158.77,47.89Z"/><path d="M164,34.35v-2a.4.4,0,0,1,.46-.45h2c.31,0,.46.14.46.43v2a.4.4,0,0,1-.46.45h-2A.4.4,0,0,1,164,34.35Zm0,13.06V36.78a.42.42,0,0,1,.46-.48h2a.42.42,0,0,1,.48.48V47.41c0,.2,0,.33-.1.39a.56.56,0,0,1-.36.09h-1.95A.42.42,0,0,1,164,47.41Z"/><path d="M168.5,36.3h2a.51.51,0,0,1,.54.48l2,8.54h.15l1.91-8.54a.53.53,0,0,1,.57-.48h2c.32,0,.43.16.34.48l-2.86,10.61a.56.56,0,0,1-.62.5h-2.88a.59.59,0,0,1-.61-.5l-2.84-10.61C168.07,36.46,168.18,36.3,168.5,36.3Z"/><path d="M183.24,47.89h-.54a3.86,3.86,0,0,1-2.78-1,3.69,3.69,0,0,1-1-2.75V40a3.66,3.66,0,0,1,1-2.75,3.82,3.82,0,0,1,2.78-1h5.24c.34,0,.5.16.5.48V47.41c0,.32-.16.48-.5.48H186a.42.42,0,0,1-.48-.48v-.75h-.09a1.7,1.7,0,0,1-.89.92A3,3,0,0,1,183.24,47.89Zm2.32-4.23V39.05c0-.16-.09-.25-.27-.25h-2.14a1.35,1.35,0,0,0-1,.31,1.44,1.44,0,0,0-.3,1v3.91a1.42,1.42,0,0,0,.3,1,1.35,1.35,0,0,0,1,.31H184C185,45.39,185.56,44.82,185.56,43.66Z"/><path d="M192.9,47.89H191a.42.42,0,0,1-.47-.48V36.78a.42.42,0,0,1,.47-.48h1.94a.42.42,0,0,1,.47.48v.75h.09a2.14,2.14,0,0,1,2.23-1.23h.73Q200,36.3,200,40v7.4c0,.32-.16.48-.5.48h-1.9a.42.42,0,0,1-.48-.48V40.14a1.14,1.14,0,0,0-1.34-1.34h-.82c-1,0-1.57.58-1.57,1.73v6.88A.42.42,0,0,1,192.9,47.89Z"/><path d="M206.16,47.89h-.93a3.46,3.46,0,0,1-2.64-1,3.88,3.88,0,0,1-.9-2.75V40a3.84,3.84,0,0,1,.9-2.75,3.43,3.43,0,0,1,2.64-1h.93a3.1,3.1,0,0,1,1.34.31,1.7,1.7,0,0,1,.89.92h.09V32.4a.42.42,0,0,1,.48-.48h1.93a.42.42,0,0,1,.48.48v15a.42.42,0,0,1-.48.48H209a.42.42,0,0,1-.48-.48v-.75h-.09a1.7,1.7,0,0,1-.89.92A3,3,0,0,1,206.16,47.89Zm2.32-4.23V40.53c0-1.15-.52-1.73-1.57-1.73h-1a1.35,1.35,0,0,0-1,.31,1.44,1.44,0,0,0-.3,1v3.91a1.42,1.42,0,0,0,.3,1,1.35,1.35,0,0,0,1,.31h1C208,45.39,208.48,44.82,208.48,43.66Z"/><path d="M215.82,47.89h-1.93a.42.42,0,0,1-.48-.48V36.78a.42.42,0,0,1,.48-.48h1.93a.42.42,0,0,1,.48.48v.77h.09a1.74,1.74,0,0,1,.88-.93,3,3,0,0,1,1.34-.32h.82q.45,0,.45.48v1.57a.5.5,0,0,1-.1.37.4.4,0,0,1-.35.08h-1.57q-1.56,0-1.56,1.77v6.84A.42.42,0,0,1,215.82,47.89Z"/><path d="M225.06,47.89h-.75a3.48,3.48,0,0,1-2.64-1,3.88,3.88,0,0,1-.9-2.75V36.78a.42.42,0,0,1,.48-.48h1.93a.42.42,0,0,1,.48.48v7.27a1.42,1.42,0,0,0,.3,1,1.37,1.37,0,0,0,1,.31h.84c1.05,0,1.57-.57,1.57-1.73V36.78a.42.42,0,0,1,.48-.48h1.91c.33,0,.5.16.5.48V47.41c0,.32-.17.48-.5.48h-1.91a.42.42,0,0,1-.48-.48v-.75h-.09a1.7,1.7,0,0,1-.89.92A3,3,0,0,1,225.06,47.89Z"/><path d="M234.72,47.89h-1.93a.42.42,0,0,1-.48-.48V36.78a.42.42,0,0,1,.48-.48h1.93a.42.42,0,0,1,.48.48v.75h.09a2.09,2.09,0,0,1,.92-.89,3.2,3.2,0,0,1,1.48-.34h.64a3,3,0,0,1,2.84,1.46,2.77,2.77,0,0,1,2.66-1.46h.66a3.43,3.43,0,0,1,2.64,1A3.84,3.84,0,0,1,248,40v7.4a.42.42,0,0,1-.48.48h-1.93a.42.42,0,0,1-.47-.48V40.14a1.44,1.44,0,0,0-.3-1,1.37,1.37,0,0,0-1-.31h-.57c-1,0-1.57.59-1.57,1.75v6.86c0,.32-.16.48-.5.48h-1.9a.42.42,0,0,1-.48-.48V40.14a1.14,1.14,0,0,0-1.34-1.34h-.71c-1,0-1.56.58-1.56,1.73v6.88A.42.42,0,0,1,234.72,47.89Z"/><path d="M151.51,67.74H149.6c-.34,0-.5-.16-.5-.48V55.88a.22.22,0,0,0-.25-.25h-2.59a.42.42,0,0,1-.48-.48V53.61a.42.42,0,0,1,.48-.48h8.58a.42.42,0,0,1,.48.48v1.54a.42.42,0,0,1-.48.48h-2.59c-.18,0-.27.08-.27.25V67.26A.42.42,0,0,1,151.51,67.74Z"/><path d="M158.77,67.74h-1.93a.42.42,0,0,1-.47-.48V56.63a.42.42,0,0,1,.47-.48h1.93a.42.42,0,0,1,.48.48v.77h.09a1.75,1.75,0,0,1,.89-.93,3,3,0,0,1,1.34-.32h.82q.45,0,.45.48V58.2a.51.51,0,0,1-.1.37.41.41,0,0,1-.35.08h-1.57c-1,0-1.57.59-1.57,1.77v6.84A.42.42,0,0,1,158.77,67.74Z"/><path d="M164,54.2v-2a.4.4,0,0,1,.46-.45h2c.31,0,.46.14.46.43v2a.4.4,0,0,1-.46.45h-2A.4.4,0,0,1,164,54.2Zm0,13.06V56.63a.42.42,0,0,1,.46-.48h2a.42.42,0,0,1,.48.48V67.26c0,.2,0,.33-.1.39a.56.56,0,0,1-.36.09h-1.95A.42.42,0,0,1,164,67.26Z"/><path d="M171.41,70.83h-1.94a.41.41,0,0,1-.47-.46V56.63a.42.42,0,0,1,.47-.48h1.94a.42.42,0,0,1,.47.48v.75H172a1.74,1.74,0,0,1,.89-.92,3.1,3.1,0,0,1,1.34-.31h.93a3.45,3.45,0,0,1,2.65,1,3.84,3.84,0,0,1,.89,2.75V64a3.87,3.87,0,0,1-.89,2.75,3.49,3.49,0,0,1-2.65.95h-.93a3,3,0,0,1-1.34-.31,1.74,1.74,0,0,1-.89-.92h-.09v3.86A.41.41,0,0,1,171.41,70.83Zm2-5.59h1a1.39,1.39,0,0,0,1-.31,1.38,1.38,0,0,0,.31-1V60a1.14,1.14,0,0,0-1.34-1.34h-1c-1,0-1.57.58-1.57,1.73v3.13C171.88,64.67,172.4,65.24,173.45,65.24Z"/><path d="M195,53.13h3.37a.42.42,0,0,1,.47.48V67.26a.42.42,0,0,1-.47.48h-1.87a.42.42,0,0,1-.47-.48V56.49h-.1l-2.31,7.61a.56.56,0,0,1-.57.46H191.1a.56.56,0,0,1-.57-.46l-2.36-7.63h-.09V67.26a.6.6,0,0,1-.09.38c-.06.07-.19.1-.39.1h-1.86a.42.42,0,0,1-.48-.48V53.61a.42.42,0,0,1,.48-.48h3.38a.44.44,0,0,1,.44.32l2.4,8h.14l2.43-8A.39.39,0,0,1,195,53.13Z"/><path d="M205.14,67.74h-.54a3.86,3.86,0,0,1-2.78-.95,3.69,3.69,0,0,1-1-2.75V59.86a3.66,3.66,0,0,1,1-2.75,3.82,3.82,0,0,1,2.78-1h5.24c.34,0,.5.16.5.48V67.26c0,.32-.16.48-.5.48h-1.9a.42.42,0,0,1-.48-.48v-.75h-.09a1.7,1.7,0,0,1-.89.92A3,3,0,0,1,205.14,67.74Zm2.32-4.23V58.9c0-.16-.09-.25-.27-.25h-2.14a1.35,1.35,0,0,0-1,.31,1.44,1.44,0,0,0-.3,1V63.9a1.42,1.42,0,0,0,.3,1,1.35,1.35,0,0,0,1,.31h.84C206.94,65.24,207.46,64.67,207.46,63.51Z"/><path d="M214.8,67.74h-1.94a.42.42,0,0,1-.47-.48v-15a.42.42,0,0,1,.47-.48h1.94a.42.42,0,0,1,.47.48v15A.42.42,0,0,1,214.8,67.74ZM219,56.15h2.2a.4.4,0,0,1,.37.16.39.39,0,0,1-.07.41l-3,5v.09l3.16,5.38a.37.37,0,0,1,0,.4.47.47,0,0,1-.41.17h-2a1.26,1.26,0,0,1-.56-.09,1.05,1.05,0,0,1-.35-.39l-2.89-5.06a.77.77,0,0,1,0-.75l2.73-4.84A.82.82,0,0,1,219,56.15Z"/><path d="M231.2,67.74h-5a3.81,3.81,0,0,1-2.77-.95,3.66,3.66,0,0,1-1-2.75V59.86a3.63,3.63,0,0,1,1-2.75,3.78,3.78,0,0,1,2.77-1H228a3.78,3.78,0,0,1,2.77,1,3.66,3.66,0,0,1,1,2.75v2.88a.42.42,0,0,1-.48.48h-5.7c-.18,0-.27.08-.27.25V64a1.42,1.42,0,0,0,.3,1,1.47,1.47,0,0,0,1,.31h4.59c.32,0,.47.16.47.5v1.5a.49.49,0,0,1-.1.35A.51.51,0,0,1,231.2,67.74Zm-5.66-6.45h3.09a.22.22,0,0,0,.25-.25V60a1.11,1.11,0,0,0-1.32-1.32h-.95A1.11,1.11,0,0,0,225.29,60V61A.22.22,0,0,0,225.54,61.29Z"/><path d="M235.83,67.74H233.9a.42.42,0,0,1-.48-.48V56.63a.42.42,0,0,1,.48-.48h1.93a.42.42,0,0,1,.48.48v.77h.09a1.75,1.75,0,0,1,.89-.93,3,3,0,0,1,1.34-.32h.81c.31,0,.46.16.46.48V58.2a.56.56,0,0,1-.1.37.42.42,0,0,1-.36.08h-1.56c-1,0-1.57.59-1.57,1.77v6.84A.42.42,0,0,1,235.83,67.74Z"/><polygon class="cls-1" points="223.2 87.19 202.22 87.19 202.36 80.16 227.53 80.16 223.2 87.19"/><path d="M38.65,87.08V84l.27.72L35.43,79h1.24l2.93,4.84h-.67l3-4.84H43L39.55,84.7,39.8,84v3.1Z"/><path d="M45.73,87.15a3.29,3.29,0,0,1-1.64-.4A3,3,0,0,1,43,85.63a3.41,3.41,0,0,1,0-3.24,2.94,2.94,0,0,1,1.14-1.1,3.56,3.56,0,0,1,3.28,0,2.87,2.87,0,0,1,1.14,1.1A3.17,3.17,0,0,1,48.92,84a3.23,3.23,0,0,1-.41,1.63,3,3,0,0,1-1.14,1.11A3.29,3.29,0,0,1,45.73,87.15Zm0-1a2.06,2.06,0,0,0,1.06-.27,1.84,1.84,0,0,0,.74-.75A2.35,2.35,0,0,0,47.8,84a2.29,2.29,0,0,0-.27-1.14,1.82,1.82,0,0,0-.74-.74,2.2,2.2,0,0,0-2.11,0,1.88,1.88,0,0,0-.74.74A2.19,2.19,0,0,0,43.66,84a2.25,2.25,0,0,0,.28,1.15,1.91,1.91,0,0,0,.74.75A2.05,2.05,0,0,0,45.73,86.18Z"/><path d="M52.81,87.15a3,3,0,0,1-1.38-.29A2,2,0,0,1,50.5,86a3.08,3.08,0,0,1-.33-1.5V80.94h1.11v3.41a1.92,1.92,0,0,0,.44,1.36,1.61,1.61,0,0,0,1.22.45,2,2,0,0,0,1-.24,1.69,1.69,0,0,0,.66-.69,2.53,2.53,0,0,0,.23-1.11V80.94H56v6.14H54.9V85.43l.17.44a2.17,2.17,0,0,1-.9.95A2.79,2.79,0,0,1,52.81,87.15Z"/><path d="M57.84,87.08V80.94h1.07v1.67l-.11-.41a1.92,1.92,0,0,1,.86-1,3.05,3.05,0,0,1,1.48-.33V82h-.25a1.88,1.88,0,0,0-1.41.53A2.12,2.12,0,0,0,59,84v3Z"/><path d="M65.41,87.08V79h3.64a3.51,3.51,0,0,1,2.15.57A1.8,1.8,0,0,1,72,81.07a1.88,1.88,0,0,1-1.09,1.81,2.43,2.43,0,0,1-1.07.24l.21-.35a2.92,2.92,0,0,1,1.22.25,2,2,0,0,1,.85.71,2,2,0,0,1,.31,1.16,1.89,1.89,0,0,1-.78,1.62,3.93,3.93,0,0,1-2.32.57Zm1.16-.93h2.66a2.71,2.71,0,0,0,1.47-.33,1.11,1.11,0,0,0,.51-1,1.14,1.14,0,0,0-.51-1,2.72,2.72,0,0,0-1.47-.32H66.46v-.94h2.48a2.43,2.43,0,0,0,1.37-.33,1.21,1.21,0,0,0,0-1.94,2.43,2.43,0,0,0-1.37-.33H66.57Z"/><path d="M76.52,87.15a3.54,3.54,0,0,1-1.73-.4,2.89,2.89,0,0,1-1.16-1.11A3.14,3.14,0,0,1,73.22,84a3.19,3.19,0,0,1,.4-1.62,2.77,2.77,0,0,1,1.1-1.1,3.07,3.07,0,0,1,1.58-.4,3.1,3.1,0,0,1,1.57.39A2.75,2.75,0,0,1,79,82.39a3.39,3.39,0,0,1,.38,1.66v.16c0,.06,0,.12,0,.18H74.09v-.8h4.64l-.45.27a2,2,0,0,0-.24-1,1.86,1.86,0,0,0-.7-.72,2,2,0,0,0-1-.27,2,2,0,0,0-1,.27,1.78,1.78,0,0,0-.71.73,2.2,2.2,0,0,0-.25,1.07v.18a2.12,2.12,0,0,0,.28,1.1,1.88,1.88,0,0,0,.79.74,2.46,2.46,0,0,0,1.17.27,2.57,2.57,0,0,0,1-.18,2.28,2.28,0,0,0,.79-.56l.61.72a2.71,2.71,0,0,1-1,.74A3.57,3.57,0,0,1,76.52,87.15Z"/><path d="M82.4,87.15A5.34,5.34,0,0,1,81,87a3.4,3.4,0,0,1-1.08-.51l.46-.88a4.39,4.39,0,0,0,1,.45,4,4,0,0,0,1.19.18A2.08,2.08,0,0,0,83.6,86a.68.68,0,0,0,.35-.61.53.53,0,0,0-.21-.45,1.56,1.56,0,0,0-.55-.25c-.23,0-.48-.1-.76-.14s-.56-.1-.84-.16a3.61,3.61,0,0,1-.76-.28,1.5,1.5,0,0,1-.56-.5,1.53,1.53,0,0,1-.21-.85,1.6,1.6,0,0,1,.32-1,2,2,0,0,1,.88-.64,3.79,3.79,0,0,1,1.37-.22,5.19,5.19,0,0,1,1.22.14,3,3,0,0,1,1,.41l-.47.88a2.78,2.78,0,0,0-.87-.38,4,4,0,0,0-.91-.1,2.11,2.11,0,0,0-1.09.23.7.7,0,0,0-.35.61.57.57,0,0,0,.21.48,1.53,1.53,0,0,0,.56.26,4.93,4.93,0,0,0,.75.16c.28,0,.56.1.84.16a4,4,0,0,1,.76.27,1.45,1.45,0,0,1,.55.49,1.42,1.42,0,0,1,.22.84,1.47,1.47,0,0,1-.33,1,2.06,2.06,0,0,1-.91.63A4,4,0,0,1,82.4,87.15Z"/><path d="M85.34,81.86v-.92h3.91v.92Zm3,5.29a2,2,0,0,1-1.44-.49,1.92,1.92,0,0,1-.51-1.43V79.6h1.11v5.58a1.07,1.07,0,0,0,.25.77.92.92,0,0,0,.71.27,1.32,1.32,0,0,0,.87-.29l.35.8a1.69,1.69,0,0,1-.61.32A2.52,2.52,0,0,1,88.33,87.15Z"/><path d="M95.44,87.08V80H92.66V79h6.71v1H96.59v7.1Z"/><path d="M100.09,87.08V80.94h1.06v1.67l-.1-.41a1.9,1.9,0,0,1,.85-1,3.1,3.1,0,0,1,1.49-.33V82h-.26a1.91,1.91,0,0,0-1.41.53A2.12,2.12,0,0,0,101.2,84v3Z"/><path d="M105.87,87.15a2.79,2.79,0,0,1-1.2-.23,1.84,1.84,0,0,1-.8-.64,1.66,1.66,0,0,1-.27-.93,1.84,1.84,0,0,1,.23-.91,1.71,1.71,0,0,1,.78-.65,3.62,3.62,0,0,1,1.45-.24h2v.8h-1.9a1.61,1.61,0,0,0-1.12.28.87.87,0,0,0-.29.67.86.86,0,0,0,.36.72,1.55,1.55,0,0,0,1,.28,2.16,2.16,0,0,0,1.1-.28,1.64,1.64,0,0,0,.68-.81l.22.76a1.77,1.77,0,0,1-.78.87A2.82,2.82,0,0,1,105.87,87.15Zm2-.07V85.79l0-.25V83.33a1.39,1.39,0,0,0-.42-1.09,1.71,1.71,0,0,0-1.23-.39,3.29,3.29,0,0,0-1.07.18,2.85,2.85,0,0,0-.88.48l-.46-.84a3.41,3.41,0,0,1,1.14-.58,4.65,4.65,0,0,1,1.4-.2,2.79,2.79,0,0,1,1.94.61,2.4,2.4,0,0,1,.69,1.88v3.7Z"/><path d="M112.26,87.08l-2.68-6.14h1.15l2.39,5.57h-.56L115,80.94h1.09l-2.69,6.14Z"/><path d="M119.46,87.15a3.54,3.54,0,0,1-1.73-.4,2.89,2.89,0,0,1-1.16-1.11,3.14,3.14,0,0,1-.41-1.63,3.19,3.19,0,0,1,.4-1.62,2.77,2.77,0,0,1,1.1-1.1,3.07,3.07,0,0,1,1.58-.4,3.1,3.1,0,0,1,1.57.39,2.75,2.75,0,0,1,1.08,1.11,3.39,3.39,0,0,1,.38,1.66v.16c0,.06,0,.12,0,.18H117v-.8h4.64l-.45.27a2,2,0,0,0-.24-1,1.86,1.86,0,0,0-.7-.72,2,2,0,0,0-1-.27,2,2,0,0,0-1,.27,1.78,1.78,0,0,0-.71.73,2.2,2.2,0,0,0-.25,1.07v.18a2.12,2.12,0,0,0,.28,1.1,1.88,1.88,0,0,0,.79.74,2.46,2.46,0,0,0,1.17.27,2.57,2.57,0,0,0,1-.18,2.28,2.28,0,0,0,.79-.56l.61.72a2.71,2.71,0,0,1-1,.74A3.57,3.57,0,0,1,119.46,87.15Z"/><path d="M123.58,87.08V78.49h1.12v8.59Z"/><path d="M133.26,87.18a4.52,4.52,0,0,1-1.71-.31,4,4,0,0,1-2.25-2.18,4.34,4.34,0,0,1,0-3.32,3.83,3.83,0,0,1,.9-1.31,4,4,0,0,1,1.36-.87,4.52,4.52,0,0,1,1.71-.31,4.63,4.63,0,0,1,1.73.32,3.58,3.58,0,0,1,1.35.94l-.75.73a3.14,3.14,0,0,0-1-.72,3.22,3.22,0,0,0-1.24-.24,3.5,3.5,0,0,0-1.27.23,3.36,3.36,0,0,0-1,.65,3.07,3.07,0,0,0-.66,1,3.38,3.38,0,0,0,0,2.5,3.07,3.07,0,0,0,.66,1,3.15,3.15,0,0,0,1,.64,3.3,3.3,0,0,0,1.27.24,3.22,3.22,0,0,0,1.24-.24,2.93,2.93,0,0,0,1-.74l.75.73a3.49,3.49,0,0,1-1.35.95A4.49,4.49,0,0,1,133.26,87.18Z"/><path d="M140,87.15a3.3,3.3,0,0,1-1.65-.4,3,3,0,0,1-1.13-1.12,3.33,3.33,0,0,1,0-3.24,3,3,0,0,1,1.13-1.1,3.58,3.58,0,0,1,3.29,0,2.94,2.94,0,0,1,1.14,1.1,3.17,3.17,0,0,1,.41,1.62,3.23,3.23,0,0,1-.41,1.63,3,3,0,0,1-1.14,1.11A3.29,3.29,0,0,1,140,87.15Zm0-1a2.09,2.09,0,0,0,1.06-.27,1.91,1.91,0,0,0,.74-.75,2.47,2.47,0,0,0,.26-1.15,2.4,2.4,0,0,0-.26-1.14,1.88,1.88,0,0,0-.74-.74,2.09,2.09,0,0,0-1.06-.27,2,2,0,0,0-1.05.27,2,2,0,0,0-.75.74,2.29,2.29,0,0,0-.27,1.14,2.35,2.35,0,0,0,.27,1.15,2,2,0,0,0,.75.75A2,2,0,0,0,140,86.18Z"/><path d="M152.17,80.89a2.78,2.78,0,0,1,1.31.29,2,2,0,0,1,.88.88,3,3,0,0,1,.32,1.49v3.53h-1.11v-3.4a1.93,1.93,0,0,0-.42-1.35,1.52,1.52,0,0,0-1.17-.45,2,2,0,0,0-1,.23,1.59,1.59,0,0,0-.64.69,2.48,2.48,0,0,0-.23,1.12v3.16H149v-3.4a2,2,0,0,0-.41-1.35,1.53,1.53,0,0,0-1.18-.45,2,2,0,0,0-1,.23,1.61,1.61,0,0,0-.65.69,2.48,2.48,0,0,0-.23,1.12v3.16h-1.11V80.94h1.06v1.64l-.17-.42a2.12,2.12,0,0,1,.89-.94,2.87,2.87,0,0,1,1.4-.33,2.61,2.61,0,0,1,1.52.43,2.07,2.07,0,0,1,.83,1.32l-.45-.19a2.35,2.35,0,0,1,1-1.14A3.05,3.05,0,0,1,152.17,80.89Z"/><path d="M156.5,89.33V80.94h1.07V82.6L157.5,84l.11,1.42v3.88Zm3.26-2.18a2.77,2.77,0,0,1-1.4-.35,2.5,2.5,0,0,1-1-1A3.62,3.62,0,0,1,157,84a3.73,3.73,0,0,1,.36-1.73,2.48,2.48,0,0,1,1-1,2.9,2.9,0,0,1,1.42-.34,3.24,3.24,0,0,1,1.6.39,3,3,0,0,1,1.1,1.09,3.58,3.58,0,0,1,0,3.29,2.9,2.9,0,0,1-1.1,1.1A3.24,3.24,0,0,1,159.76,87.15Zm-.1-1a2.06,2.06,0,0,0,1.06-.27,1.93,1.93,0,0,0,.75-.75,2.35,2.35,0,0,0,.27-1.15,2.29,2.29,0,0,0-.27-1.14,1.91,1.91,0,0,0-.75-.74,2.06,2.06,0,0,0-1.06-.27,2,2,0,0,0-1,.27,1.91,1.91,0,0,0-.75.74A2.29,2.29,0,0,0,157.6,84a2.35,2.35,0,0,0,.27,1.15,1.93,1.93,0,0,0,.75.75A2,2,0,0,0,159.66,86.18Z"/><path d="M165.91,87.15a2.79,2.79,0,0,1-1.2-.23,1.81,1.81,0,0,1-.79-.64,1.59,1.59,0,0,1-.28-.93,1.74,1.74,0,0,1,.24-.91,1.63,1.63,0,0,1,.77-.65,3.67,3.67,0,0,1,1.46-.24h1.94v.8h-1.9a1.63,1.63,0,0,0-1.12.28.9.9,0,0,0-.29.67.86.86,0,0,0,.36.72,1.55,1.55,0,0,0,1,.28,2.16,2.16,0,0,0,1.1-.28,1.64,1.64,0,0,0,.68-.81l.22.76a1.77,1.77,0,0,1-.78.87A2.82,2.82,0,0,1,165.91,87.15Zm2-.07V85.79l-.06-.25V83.33a1.42,1.42,0,0,0-.41-1.09,1.76,1.76,0,0,0-1.24-.39,3.19,3.19,0,0,0-1.06.18,2.64,2.64,0,0,0-.88.48l-.47-.84a3.41,3.41,0,0,1,1.14-.58,4.65,4.65,0,0,1,1.4-.2,2.83,2.83,0,0,1,2,.61,2.43,2.43,0,0,1,.68,1.88v3.7Z"/><path d="M174.09,80.89a2.86,2.86,0,0,1,1.33.29,2,2,0,0,1,.89.88,3,3,0,0,1,.33,1.49v3.53h-1.11v-3.4a1.89,1.89,0,0,0-.44-1.35,1.62,1.62,0,0,0-1.22-.45,2.23,2.23,0,0,0-1,.23,1.62,1.62,0,0,0-.68.69,2.35,2.35,0,0,0-.24,1.12v3.16h-1.11V80.94h1.07V82.6l-.18-.44a2.16,2.16,0,0,1,.93-.94A3.08,3.08,0,0,1,174.09,80.89Z"/><path d="M179,79.76a.73.73,0,0,1-.54-.21.67.67,0,0,1-.22-.51.69.69,0,0,1,.22-.52.79.79,0,0,1,1.07,0,.63.63,0,0,1,.22.5.74.74,0,0,1-.21.53A.73.73,0,0,1,179,79.76Zm-.56,7.32V80.94h1.11v6.14Z"/><path d="M184.1,87.15a3.24,3.24,0,0,1-1.64-.4,3,3,0,0,1-1.14-1.12,3.33,3.33,0,0,1,0-3.24,2.94,2.94,0,0,1,1.14-1.1,3.24,3.24,0,0,1,1.64-.4,3.29,3.29,0,0,1,1.64.4,2.94,2.94,0,0,1,1.14,1.1,3.17,3.17,0,0,1,.41,1.62,3.23,3.23,0,0,1-.41,1.63,3,3,0,0,1-1.14,1.11A3.29,3.29,0,0,1,184.1,87.15Zm0-1a2.09,2.09,0,0,0,1.06-.27,1.91,1.91,0,0,0,.74-.75,2.47,2.47,0,0,0,.26-1.15,2.4,2.4,0,0,0-.26-1.14,1.88,1.88,0,0,0-.74-.74,2.09,2.09,0,0,0-1.06-.27,2.05,2.05,0,0,0-1,.27,2,2,0,0,0-.75.74A2.29,2.29,0,0,0,182,84a2.35,2.35,0,0,0,.27,1.15,2,2,0,0,0,.75.75A2.05,2.05,0,0,0,184.1,86.18Z"/><path d="M191.88,80.89a2.79,2.79,0,0,1,1.32.29,2.06,2.06,0,0,1,.9.88,3,3,0,0,1,.32,1.49v3.53h-1.11v-3.4a1.89,1.89,0,0,0-.43-1.35,1.62,1.62,0,0,0-1.22-.45,2.28,2.28,0,0,0-1,.23,1.59,1.59,0,0,0-.67.69,2.35,2.35,0,0,0-.24,1.12v3.16H188.6V80.94h1.06V82.6l-.17-.44a2.16,2.16,0,0,1,.93-.94A3.06,3.06,0,0,1,191.88,80.89Z"/></svg>