<svg id="Layer_1" data-name="Layer 1" xmlns="http://www.w3.org/2000/svg" viewBox="0 0 283.46 113.39"><defs><style>.cls-1{fill:#3dae2b;}.cls-2{fill:#fff;}</style></defs><title>TTM</title><path class="cls-1" d="M106.1,32.55H99.49s4.13,3.36.84,10.29L86.18,68.05H73.71L87.65,41.41a5.54,5.54,0,0,0-4.42-8.29l-6.48-.6L82,24.16h28.82Z"/><path class="cls-1" d="M72.84,32.55H66.25s4,3.28,1,10.05L52.92,68.05H40.45L54.39,41.41A5.54,5.54,0,0,0,50,33.12l-8.4.63,5.24-9.59H77.54Z"/><path class="cls-1" d="M128.07,51.05l-8.64,17H107l9.47-18.89c4.1-7.12,1.78-16.09-6.43-16.64h0l5.23-8.36C129,24.16,135.12,39.19,128.07,51.05Z"/><path class="cls-2" d="M151.47,47.92h-1.9c-.33,0-.5-.16-.5-.48V36.1a.22.22,0,0,0-.25-.25h-2.58a.42.42,0,0,1-.47-.47V33.84a.42.42,0,0,1,.47-.48h8.56a.42.42,0,0,1,.48.48v1.54a.42.42,0,0,1-.48.47h-2.58c-.18,0-.27.08-.27.25V47.44A.42.42,0,0,1,151.47,47.92Z"/><path class="cls-2" d="M158.72,47.92h-1.93a.42.42,0,0,1-.47-.48V36.85a.42.42,0,0,1,.47-.48h1.93a.42.42,0,0,1,.47.48v.77h.09a1.75,1.75,0,0,1,.89-.93,3,3,0,0,1,1.33-.32h.82q.45,0,.45.48v1.56a.5.5,0,0,1-.1.37.41.41,0,0,1-.35.08h-1.56c-1,0-1.57.59-1.57,1.77v6.81A.42.42,0,0,1,158.72,47.92Z"/><path class="cls-2" d="M163.88,34.42v-2a.4.4,0,0,1,.45-.45h2c.31,0,.46.15.46.43v2a.4.4,0,0,1-.46.46h-2A.4.4,0,0,1,163.88,34.42Zm0,13V36.85q0-.48.45-.48h1.95a.42.42,0,0,1,.48.48V47.44a.52.52,0,0,1-.11.39.51.51,0,0,1-.35.09h-1.94A.42.42,0,0,1,163.88,47.44Z"/><path class="cls-2" d="M168.41,36.37h2a.53.53,0,0,1,.55.48l1.94,8.51h.16l1.9-8.51a.53.53,0,0,1,.57-.48h2c.32,0,.43.16.34.48L175,47.42a.56.56,0,0,1-.61.5h-2.88a.59.59,0,0,1-.61-.5l-2.83-10.57C168,36.53,168.09,36.37,168.41,36.37Z"/><path class="cls-2" d="M183.1,47.92h-.54a3.81,3.81,0,0,1-2.76-1,3.67,3.67,0,0,1-1-2.74V40.06a3.67,3.67,0,0,1,1-2.74,3.81,3.81,0,0,1,2.76-1h5.23c.33,0,.5.16.5.48V47.44c0,.32-.17.48-.5.48h-1.9a.42.42,0,0,1-.48-.48V46.7h-.09a1.7,1.7,0,0,1-.88.91A3,3,0,0,1,183.1,47.92Zm2.31-4.21v-4.6c0-.16-.09-.25-.27-.25H183a1.37,1.37,0,0,0-1,.31,1.49,1.49,0,0,0-.29,1v3.89a1.47,1.47,0,0,0,.29,1,1.37,1.37,0,0,0,1,.31h.84C184.89,45.43,185.41,44.86,185.41,43.71Z"/><path class="cls-2" d="M192.73,47.92H190.8a.42.42,0,0,1-.47-.48V36.85a.42.42,0,0,1,.47-.48h1.93a.42.42,0,0,1,.47.48v.74h.09a2.14,2.14,0,0,1,2.22-1.22h.73q3.56,0,3.55,3.69v7.38c0,.32-.16.48-.5.48h-1.9a.42.42,0,0,1-.47-.48V40.2a1.44,1.44,0,0,0-.31-1,1.39,1.39,0,0,0-1-.31h-.82c-1,0-1.56.58-1.56,1.72v6.86A.42.42,0,0,1,192.73,47.92Z"/><path class="cls-2" d="M206,47.92H205a3.48,3.48,0,0,1-2.64-1,3.89,3.89,0,0,1-.89-2.74V40.06a3.89,3.89,0,0,1,.89-2.74,3.48,3.48,0,0,1,2.64-1H206a3,3,0,0,1,1.34.31,1.74,1.74,0,0,1,.88.91h.09V32.48a.42.42,0,0,1,.48-.48h1.92a.42.42,0,0,1,.48.48v15a.42.42,0,0,1-.48.48h-1.92a.42.42,0,0,1-.48-.48V46.7h-.09a1.74,1.74,0,0,1-.88.91A3,3,0,0,1,206,47.92Zm2.31-4.21V40.58c0-1.14-.52-1.72-1.56-1.72h-1a1.37,1.37,0,0,0-1,.31,1.44,1.44,0,0,0-.29,1v3.89a1.43,1.43,0,0,0,.29,1,1.37,1.37,0,0,0,1,.31h1C207.74,45.43,208.26,44.86,208.26,43.71Z"/><path class="cls-2" d="M215.57,47.92h-1.92a.42.42,0,0,1-.48-.48V36.85a.42.42,0,0,1,.48-.48h1.92a.42.42,0,0,1,.48.48v.77h.09a1.74,1.74,0,0,1,.88-.93,3,3,0,0,1,1.34-.32h.81a.42.42,0,0,1,.46.48v1.56a.49.49,0,0,1-.11.37.39.39,0,0,1-.35.08h-1.56q-1.56,0-1.56,1.77v6.81A.42.42,0,0,1,215.57,47.92Z"/><path class="cls-2" d="M224.79,47.92H224a3.48,3.48,0,0,1-2.64-1,3.89,3.89,0,0,1-.89-2.74V36.85a.42.42,0,0,1,.47-.48h1.93a.42.42,0,0,1,.47.48v7.24a1.42,1.42,0,0,0,.31,1,1.36,1.36,0,0,0,1,.31h.84c1,0,1.56-.57,1.56-1.72V36.85a.42.42,0,0,1,.47-.48h1.91a.43.43,0,0,1,.49.48V47.44a.43.43,0,0,1-.49.48h-1.91a.42.42,0,0,1-.47-.48V46.7H227a1.74,1.74,0,0,1-.88.91A3,3,0,0,1,224.79,47.92Z"/><path class="cls-2" d="M234.41,47.92h-1.92a.42.42,0,0,1-.48-.48V36.85a.42.42,0,0,1,.48-.48h1.92a.42.42,0,0,1,.48.48v.74H235a2,2,0,0,1,.91-.88,3.27,3.27,0,0,1,1.49-.34H238a3,3,0,0,1,2.83,1.45,2.77,2.77,0,0,1,2.65-1.45h.66a3.48,3.48,0,0,1,2.64,1,3.89,3.89,0,0,1,.89,2.74v7.38a.42.42,0,0,1-.47.48h-1.93a.42.42,0,0,1-.48-.48V40.2a1.44,1.44,0,0,0-.29-1,1.37,1.37,0,0,0-1-.31h-.56c-1.05,0-1.57.58-1.57,1.75v6.83a.43.43,0,0,1-.49.48H239a.42.42,0,0,1-.47-.48V40.2a1.14,1.14,0,0,0-1.34-1.34h-.7c-1,0-1.56.58-1.56,1.72v6.86A.42.42,0,0,1,234.41,47.92Z"/><path class="cls-2" d="M151.47,67.7h-1.9c-.33,0-.5-.15-.5-.47V55.88c0-.16-.08-.24-.25-.24h-2.58a.42.42,0,0,1-.47-.48V53.62a.42.42,0,0,1,.47-.48h8.56a.42.42,0,0,1,.48.48v1.54a.42.42,0,0,1-.48.48h-2.58q-.27,0-.27.24V67.23A.42.42,0,0,1,151.47,67.7Z"/><path class="cls-2" d="M158.72,67.7h-1.93a.41.41,0,0,1-.47-.47V56.63a.41.41,0,0,1,.47-.47h1.93a.41.41,0,0,1,.47.47v.77h.09a1.75,1.75,0,0,1,.89-.93,3,3,0,0,1,1.33-.31h.82c.3,0,.45.15.45.47v1.56a.54.54,0,0,1-.1.38.45.45,0,0,1-.35.08h-1.56c-1,0-1.57.59-1.57,1.76v6.82A.41.41,0,0,1,158.72,67.7Z"/><path class="cls-2" d="M163.88,54.21v-2a.4.4,0,0,1,.45-.45h2c.31,0,.46.14.46.43v2a.4.4,0,0,1-.46.45h-2A.4.4,0,0,1,163.88,54.21Zm0,13V56.63c0-.32.15-.47.45-.47h1.95a.42.42,0,0,1,.48.47v10.6a.38.38,0,0,1-.46.47h-1.94A.42.42,0,0,1,163.88,67.23Z"/><path class="cls-2" d="M171.31,70.78h-1.93c-.31,0-.47-.15-.47-.45V56.63a.41.41,0,0,1,.47-.47h1.93a.41.41,0,0,1,.47.47v.75h.09a1.74,1.74,0,0,1,.89-.92,3,3,0,0,1,1.33-.3H175a3.44,3.44,0,0,1,2.64,1,3.86,3.86,0,0,1,.89,2.74V64a3.86,3.86,0,0,1-.89,2.74,3.44,3.44,0,0,1-2.64,1h-.93a3,3,0,0,1-1.33-.3,1.74,1.74,0,0,1-.89-.92h-.09v3.85C171.78,70.63,171.62,70.78,171.31,70.78Zm2-5.57h1a1.44,1.44,0,0,0,1-.3,1.41,1.41,0,0,0,.31-1V60a1.41,1.41,0,0,0-.31-1,1.44,1.44,0,0,0-1-.3h-1c-1,0-1.57.57-1.57,1.72v3.12C171.78,64.64,172.3,65.21,173.35,65.21Z"/><path class="cls-2" d="M194.79,53.14h3.35a.42.42,0,0,1,.47.48V67.23a.41.41,0,0,1-.47.47h-1.86a.41.41,0,0,1-.47-.47V56.5h-.09l-2.31,7.58a.56.56,0,0,1-.57.45h-1.9a.56.56,0,0,1-.57-.45L188,56.47h-.09V67.23a.57.57,0,0,1-.09.37c-.06.07-.19.1-.39.1h-1.86a.41.41,0,0,1-.47-.47V53.62a.42.42,0,0,1,.47-.48H189a.44.44,0,0,1,.43.32l2.4,8h.13l2.43-8A.39.39,0,0,1,194.79,53.14Z"/><path class="cls-2" d="M204.93,67.7h-.54a3.75,3.75,0,0,1-2.76-1,3.64,3.64,0,0,1-1-2.74V59.85a3.64,3.64,0,0,1,1-2.74,3.75,3.75,0,0,1,2.76-1h5.23c.33,0,.5.15.5.47v10.6c0,.32-.17.47-.5.47h-1.9a.42.42,0,0,1-.48-.47v-.75h-.09a1.75,1.75,0,0,1-.88.92A3.12,3.12,0,0,1,204.93,67.7Zm2.31-4.21V58.9c0-.17-.09-.25-.27-.25h-2.13a1.41,1.41,0,0,0-1,.3,1.51,1.51,0,0,0-.29,1v3.9a1.51,1.51,0,0,0,.29,1,1.41,1.41,0,0,0,1,.3h.84C206.72,65.21,207.24,64.64,207.24,63.49Z"/><path class="cls-2" d="M214.55,67.7h-1.92a.42.42,0,0,1-.48-.47v-15a.42.42,0,0,1,.48-.47h1.92a.42.42,0,0,1,.48.47v15A.42.42,0,0,1,214.55,67.7Zm4.22-11.54H221a.39.39,0,0,1,.36.15.4.4,0,0,1-.06.41l-3,5v.09l3.14,5.37a.35.35,0,0,1,0,.39.45.45,0,0,1-.41.17h-1.95a1.21,1.21,0,0,1-.55-.09,1.1,1.1,0,0,1-.36-.38l-2.87-5.05a.72.72,0,0,1,0-.75L218,56.61A.81.81,0,0,1,218.77,56.16Z"/><path class="cls-2" d="M230.9,67.7h-5a3.75,3.75,0,0,1-2.76-1,3.64,3.64,0,0,1-1-2.74V59.85a3.64,3.64,0,0,1,1-2.74,3.75,3.75,0,0,1,2.76-1h1.79a3.76,3.76,0,0,1,2.76,1,3.64,3.64,0,0,1,1,2.74v2.87a.42.42,0,0,1-.47.48h-5.69c-.18,0-.27.08-.27.25V64a1.35,1.35,0,0,0,.31,1,1.38,1.38,0,0,0,1,.31h4.57c.32,0,.48.16.48.5v1.49a.52.52,0,0,1-.1.35A.54.54,0,0,1,230.9,67.7Zm-5.64-6.43h3.08a.22.22,0,0,0,.25-.25V59.94a1.43,1.43,0,0,0-.29-1,1.41,1.41,0,0,0-1-.3h-.95A1.11,1.11,0,0,0,225,59.94V61A.22.22,0,0,0,225.26,61.27Z"/><path class="cls-2" d="M235.52,67.7H233.6a.42.42,0,0,1-.48-.47V56.63a.42.42,0,0,1,.48-.47h1.92a.42.42,0,0,1,.48.47v.77h.09a1.74,1.74,0,0,1,.88-.93,3,3,0,0,1,1.34-.31h.81c.3,0,.45.15.45.47v1.56a.54.54,0,0,1-.1.38.44.44,0,0,1-.35.08h-1.56c-1,0-1.56.59-1.56,1.76v6.82A.42.42,0,0,1,235.52,67.7Z"/><polygon class="cls-1" points="222.93 87.09 202.03 87.09 202.16 80.08 227.25 80.08 222.93 87.09"/><path class="cls-2" d="M39,87v-3.1l.27.72L35.78,78.9H37l2.92,4.82h-.67L42.2,78.9h1.15l-3.47,5.71.26-.72V87Z"/><path class="cls-2" d="M46.05,87.05a3.27,3.27,0,0,1-1.64-.4,3,3,0,0,1-1.13-1.11,3.13,3.13,0,0,1-.42-1.62,3.09,3.09,0,0,1,.42-1.61,3,3,0,0,1,1.13-1.11,3.62,3.62,0,0,1,3.27,0,3,3,0,0,1,1.14,1.1,3.41,3.41,0,0,1,0,3.24,3,3,0,0,1-1.14,1.11A3.26,3.26,0,0,1,46.05,87.05Zm0-1a2.08,2.08,0,0,0,1.06-.26,1.91,1.91,0,0,0,.73-.76,2.52,2.52,0,0,0,0-2.27,2,2,0,0,0-.73-.75,2.08,2.08,0,0,0-1.06-.26,2,2,0,0,0-1.79,1,2.44,2.44,0,0,0,0,2.27,2,2,0,0,0,.74.76A2,2,0,0,0,46.05,86.08Z"/><path class="cls-2" d="M53.11,87.05a3.12,3.12,0,0,1-1.38-.28,2.1,2.1,0,0,1-.93-.89,3,3,0,0,1-.33-1.49V80.86h1.11v3.4A1.92,1.92,0,0,0,52,85.61a1.62,1.62,0,0,0,1.22.45,2,2,0,0,0,1-.24,1.58,1.58,0,0,0,.66-.69,2.45,2.45,0,0,0,.23-1.1V80.86h1.11V87H55.19V85.33l.17.44a2.12,2.12,0,0,1-.9,1A2.75,2.75,0,0,1,53.11,87.05Z"/><path class="cls-2" d="M58.12,87V80.86h1.06v1.67l-.1-.42a1.88,1.88,0,0,1,.85-1,3,3,0,0,1,1.48-.33v1.07h-.25a1.88,1.88,0,0,0-1.41.53,2.1,2.1,0,0,0-.52,1.54v3Z"/><path class="cls-2" d="M65.66,87V78.9h3.63a3.54,3.54,0,0,1,2.14.56A1.8,1.8,0,0,1,72.18,81a1.87,1.87,0,0,1-1.08,1.8A2.44,2.44,0,0,1,70,83l.2-.35a3,3,0,0,1,1.23.24,2,2,0,0,1,.84.71,2,2,0,0,1,.31,1.16,1.88,1.88,0,0,1-.78,1.61,3.89,3.89,0,0,1-2.31.58Zm1.15-.94h2.66a2.81,2.81,0,0,0,1.47-.32,1.29,1.29,0,0,0,0-2,2.81,2.81,0,0,0-1.47-.32H66.71v-.94h2.47a2.38,2.38,0,0,0,1.36-.32,1.21,1.21,0,0,0,0-1.94,2.38,2.38,0,0,0-1.36-.32H66.81Z"/><path class="cls-2" d="M76.73,87.05a3.52,3.52,0,0,1-1.72-.4,3,3,0,0,1-1.16-1.11,3.2,3.2,0,0,1-.41-1.62,3.28,3.28,0,0,1,.4-1.61,2.93,2.93,0,0,1,1.1-1.11,3.38,3.38,0,0,1,3.15,0,2.74,2.74,0,0,1,1.06,1.1A3.42,3.42,0,0,1,79.54,84a.92.92,0,0,1,0,.16c0,.06,0,.12,0,.17H74.31V83.5h4.63l-.45.27a2,2,0,0,0-.24-1,2,2,0,0,0-.7-.72,2.06,2.06,0,0,0-1-.26,2,2,0,0,0-1,.26,1.91,1.91,0,0,0-.71.73,2.2,2.2,0,0,0-.25,1.07V84a2.08,2.08,0,0,0,.28,1.09,2,2,0,0,0,.79.75,2.46,2.46,0,0,0,1.17.26,2.64,2.64,0,0,0,1-.18,2.31,2.31,0,0,0,.78-.55l.61.71a2.71,2.71,0,0,1-1,.74A3.57,3.57,0,0,1,76.73,87.05Z"/><path class="cls-2" d="M82.6,87.05a4.93,4.93,0,0,1-1.45-.2,3.4,3.4,0,0,1-1.08-.51l.46-.88a3.79,3.79,0,0,0,1,.45,4,4,0,0,0,1.18.19,2.22,2.22,0,0,0,1.12-.22.71.71,0,0,0,.34-.62.54.54,0,0,0-.21-.45,1.65,1.65,0,0,0-.55-.24c-.23,0-.48-.1-.76-.14l-.83-.16A3.61,3.61,0,0,1,81,84a1.4,1.4,0,0,1-.55-.5,1.51,1.51,0,0,1-.21-.85,1.56,1.56,0,0,1,.31-1,2,2,0,0,1,.88-.64,3.73,3.73,0,0,1,1.36-.22A5.71,5.71,0,0,1,84,81a3,3,0,0,1,1,.41l-.47.88a2.57,2.57,0,0,0-.87-.38,4,4,0,0,0-.9-.11,2,2,0,0,0-1.09.24.7.7,0,0,0-.35.61.6.6,0,0,0,.21.48,1.76,1.76,0,0,0,.55.26,6.82,6.82,0,0,0,.76.15c.28,0,.55.1.83.16a4,4,0,0,1,.76.27,1.52,1.52,0,0,1,.55.49,1.61,1.61,0,0,1-.11,1.79,2.06,2.06,0,0,1-.91.63A3.94,3.94,0,0,1,82.6,87.05Z"/><path class="cls-2" d="M85.52,81.78v-.92h3.91v.92Zm3,5.27a2,2,0,0,1-1.43-.49,1.9,1.9,0,0,1-.51-1.42V79.53h1.11v5.56a1,1,0,0,0,.25.76.91.91,0,0,0,.71.27,1.34,1.34,0,0,0,.87-.29l.34.8a1.73,1.73,0,0,1-.6.32A2.59,2.59,0,0,1,88.5,87.05Z"/><path class="cls-2" d="M95.59,87V79.91H92.82v-1h6.69v1H96.74V87Z"/><path class="cls-2" d="M100.22,87V80.86h1.07v1.67l-.11-.42a1.9,1.9,0,0,1,.86-1,3,3,0,0,1,1.47-.33v1.07h-.25a1.91,1.91,0,0,0-1.41.53,2.14,2.14,0,0,0-.52,1.54v3Z"/><path class="cls-2" d="M106,87.05a2.79,2.79,0,0,1-1.2-.23,1.74,1.74,0,0,1-.79-.64,1.65,1.65,0,0,1-.28-.93,1.73,1.73,0,0,1,.24-.9,1.66,1.66,0,0,1,.77-.64,3.43,3.43,0,0,1,1.45-.25h1.94v.8h-1.89a1.61,1.61,0,0,0-1.12.28.9.9,0,0,0-.29.67.86.86,0,0,0,.36.72,1.62,1.62,0,0,0,1,.27,2,2,0,0,0,1.09-.28,1.56,1.56,0,0,0,.68-.81l.22.77a1.75,1.75,0,0,1-.78.86A2.78,2.78,0,0,1,106,87.05Zm2-.06v-1.3l-.06-.24V83.24a1.44,1.44,0,0,0-.41-1.09,1.74,1.74,0,0,0-1.23-.38,3.18,3.18,0,0,0-1.06.17,2.74,2.74,0,0,0-.88.48l-.46-.83A3.26,3.26,0,0,1,105,81a4.63,4.63,0,0,1,1.39-.2,2.79,2.79,0,0,1,1.94.61,2.37,2.37,0,0,1,.69,1.87V87Z"/><path class="cls-2" d="M112.36,87l-2.68-6.13h1.16l2.38,5.55h-.56l2.43-5.55h1.08L113.49,87Z"/><path class="cls-2" d="M119.53,87.05a3.52,3.52,0,0,1-1.72-.4,2.89,2.89,0,0,1-1.16-1.11,3.42,3.42,0,0,1,0-3.23,2.86,2.86,0,0,1,1.1-1.11,3.15,3.15,0,0,1,1.57-.39,3.07,3.07,0,0,1,1.57.39A2.76,2.76,0,0,1,122,82.3a3.42,3.42,0,0,1,.39,1.66.92.92,0,0,1,0,.16c0,.06,0,.12,0,.17h-5.21V83.5h4.63l-.45.27a2.14,2.14,0,0,0-.24-1,2,2,0,0,0-.7-.72,2.06,2.06,0,0,0-1-.26,2,2,0,0,0-1,.26,1.85,1.85,0,0,0-.71.73,2.2,2.2,0,0,0-.25,1.07V84a2.08,2.08,0,0,0,.28,1.09,2,2,0,0,0,.79.75,2.46,2.46,0,0,0,1.17.26,2.55,2.55,0,0,0,1-.18,2.13,2.13,0,0,0,.78-.55l.62.71a2.79,2.79,0,0,1-1,.74A3.57,3.57,0,0,1,119.53,87.05Z"/><path class="cls-2" d="M123.64,87V78.42h1.11V87Z"/><path class="cls-2" d="M133.29,87.08a4.52,4.52,0,0,1-1.71-.31,4,4,0,0,1-2.24-2.18,4.29,4.29,0,0,1,0-3.3,3.83,3.83,0,0,1,.9-1.31,4.13,4.13,0,0,1,1.35-.87,4.73,4.73,0,0,1,1.71-.3,4.39,4.39,0,0,1,1.72.32,3.47,3.47,0,0,1,1.35.94l-.75.72a3.14,3.14,0,0,0-1-.72,3.41,3.41,0,0,0-1.24-.23,3.28,3.28,0,0,0-1.26.23,3,3,0,0,0-1,.64,2.94,2.94,0,0,0-.67,1,3.37,3.37,0,0,0-.23,1.24,3.34,3.34,0,0,0,.23,1.24,2.76,2.76,0,0,0,.67,1,3,3,0,0,0,1,.65,3.48,3.48,0,0,0,1.26.23,3.22,3.22,0,0,0,1.24-.24,3,3,0,0,0,1-.73l.75.73a3.58,3.58,0,0,1-1.35.94A4.41,4.41,0,0,1,133.29,87.08Z"/><path class="cls-2" d="M140,87.05a3.24,3.24,0,0,1-1.64-.4,3,3,0,0,1-1.14-1.11,3.22,3.22,0,0,1-.41-1.62,3.19,3.19,0,0,1,.41-1.61,3,3,0,0,1,1.14-1.11,3.34,3.34,0,0,1,1.64-.39,3.39,3.39,0,0,1,1.63.39,3,3,0,0,1,1.13,1.1,3.41,3.41,0,0,1,0,3.24,2.94,2.94,0,0,1-1.13,1.11A3.28,3.28,0,0,1,140,87.05Zm0-1a2,2,0,0,0,1.05-.26,1.93,1.93,0,0,0,.74-.76,2.61,2.61,0,0,0,0-2.27,2,2,0,0,0-.74-.75,2,2,0,0,0-1.05-.26A2,2,0,0,0,139,82a2,2,0,0,0-.74.75,2.44,2.44,0,0,0,0,2.27,1.93,1.93,0,0,0,.74.76A2,2,0,0,0,140,86.08Z"/><path class="cls-2" d="M152.13,80.81a2.75,2.75,0,0,1,1.31.29,2,2,0,0,1,.88.87,3.16,3.16,0,0,1,.32,1.49V87h-1.11v-3.4a1.91,1.91,0,0,0-.42-1.34A1.48,1.48,0,0,0,152,81.8a2,2,0,0,0-1,.23,1.56,1.56,0,0,0-.64.68,2.51,2.51,0,0,0-.23,1.12V87H149v-3.4a1.9,1.9,0,0,0-.41-1.34,1.49,1.49,0,0,0-1.17-.45,2,2,0,0,0-1,.23,1.62,1.62,0,0,0-.64.68,2.38,2.38,0,0,0-.23,1.12V87h-1.11V80.86h1.06v1.63l-.17-.41a2.07,2.07,0,0,1,.89-.94,2.83,2.83,0,0,1,1.39-.33,2.64,2.64,0,0,1,1.52.43,2.07,2.07,0,0,1,.83,1.31l-.45-.18a2.27,2.27,0,0,1,1-1.14A3,3,0,0,1,152.13,80.81Z"/><path class="cls-2" d="M156.45,89.23V80.86h1.06v1.66l-.06,1.42.11,1.42v3.87Zm3.25-2.18a2.71,2.71,0,0,1-1.39-.35,2.53,2.53,0,0,1-1-1,3.62,3.62,0,0,1-.37-1.74,3.73,3.73,0,0,1,.36-1.73,2.43,2.43,0,0,1,1-1,2.9,2.9,0,0,1,1.42-.34,3.18,3.18,0,0,1,1.59.39,2.88,2.88,0,0,1,1.1,1.09,3.54,3.54,0,0,1,0,3.27,2.9,2.9,0,0,1-1.1,1.1A3.18,3.18,0,0,1,159.7,87.05Zm-.1-1a2.06,2.06,0,0,0,1.06-.26,1.93,1.93,0,0,0,.74-.76,2.52,2.52,0,0,0,0-2.27,2,2,0,0,0-.74-.75,2.06,2.06,0,0,0-1.06-.26,2,2,0,0,0-1,.26,2,2,0,0,0-.74.75,2.52,2.52,0,0,0,0,2.27,1.93,1.93,0,0,0,.74.76A2,2,0,0,0,159.6,86.08Z"/><path class="cls-2" d="M165.83,87.05a2.86,2.86,0,0,1-1.2-.23,1.8,1.8,0,0,1-.79-.64,1.64,1.64,0,0,1-.27-.93,1.72,1.72,0,0,1,.23-.9,1.64,1.64,0,0,1,.78-.64,3.4,3.4,0,0,1,1.45-.25H168v.8h-1.9a1.63,1.63,0,0,0-1.12.28.9.9,0,0,0-.29.67.86.86,0,0,0,.36.72,1.62,1.62,0,0,0,1,.27,2.09,2.09,0,0,0,1.1-.28,1.54,1.54,0,0,0,.67-.81l.22.77a1.73,1.73,0,0,1-.77.86A2.82,2.82,0,0,1,165.83,87.05Zm2-.06v-1.3l-.06-.24V83.24a1.44,1.44,0,0,0-.41-1.09,1.71,1.71,0,0,0-1.23-.38,3.18,3.18,0,0,0-1.06.17,2.74,2.74,0,0,0-.88.48l-.46-.83a3.23,3.23,0,0,1,1.14-.58,4.54,4.54,0,0,1,1.39-.2,2.8,2.8,0,0,1,1.94.61,2.4,2.4,0,0,1,.68,1.87V87Z"/><path class="cls-2" d="M174,80.81a2.79,2.79,0,0,1,1.32.29,2,2,0,0,1,.9.87,3,3,0,0,1,.32,1.49V87h-1.11v-3.4a1.86,1.86,0,0,0-.43-1.34,1.61,1.61,0,0,0-1.22-.45,2.19,2.19,0,0,0-1,.23,1.59,1.59,0,0,0-.68.68,2.38,2.38,0,0,0-.24,1.12V87h-1.11V80.86h1.07v1.66l-.18-.44a2.11,2.11,0,0,1,.93-.94A3,3,0,0,1,174,80.81Z"/><path class="cls-2" d="M178.9,79.69a.72.72,0,0,1-.53-.21.71.71,0,0,1,0-1,.79.79,0,0,1,1.07,0,.66.66,0,0,1,.21.5.72.72,0,0,1-.75.74Zm-.55,7.3V80.86h1.11V87Z"/><path class="cls-2" d="M184,87.05a3.27,3.27,0,0,1-1.64-.4,3,3,0,0,1-1.13-1.11,3.13,3.13,0,0,1-.42-1.62,3.09,3.09,0,0,1,.42-1.61,3,3,0,0,1,1.13-1.11,3.62,3.62,0,0,1,3.27,0,3,3,0,0,1,1.14,1.1,3.41,3.41,0,0,1,0,3.24,3,3,0,0,1-1.14,1.11A3.26,3.26,0,0,1,184,87.05Zm0-1a2.08,2.08,0,0,0,1.06-.26,1.91,1.91,0,0,0,.73-.76,2.52,2.52,0,0,0,0-2.27A2,2,0,0,0,185,82a2.08,2.08,0,0,0-1.06-.26,2,2,0,0,0-1.79,1,2.44,2.44,0,0,0,0,2.27,2,2,0,0,0,.74.76A2,2,0,0,0,184,86.08Z"/><path class="cls-2" d="M191.71,80.81a2.79,2.79,0,0,1,1.32.29,2.1,2.1,0,0,1,.9.87,3.16,3.16,0,0,1,.32,1.49V87h-1.11v-3.4a1.86,1.86,0,0,0-.43-1.34,1.62,1.62,0,0,0-1.22-.45,2.23,2.23,0,0,0-1,.23,1.57,1.57,0,0,0-.67.68,2.38,2.38,0,0,0-.24,1.12V87h-1.11V80.86h1.06v1.66l-.17-.44a2.14,2.14,0,0,1,.92-.94A3.08,3.08,0,0,1,191.71,80.81Z"/></svg>